<svg xmlns="http://www.w3.org/2000/svg" xmlns:xlink="http://www.w3.org/1999/xlink" width="500" zoomAndPan="magnify" viewBox="0 0 375 374.999991" height="500" preserveAspectRatio="xMidYMid meet" version="1.0"><defs><clipPath id="2e63522c04"><path d="M 44.0625 0 L 331 0 L 331 375 L 44.0625 375 Z M 44.0625 0 " clip-rule="nonzero"/></clipPath></defs><g clip-path="url(#2e63522c04)"><path fill="#6d0083" d="M 187.542969 251.128906 C 125.789062 251.128906 75.554688 200.886719 75.554688 139.132812 C 75.554688 77.378906 125.789062 27.140625 187.542969 27.140625 C 249.296875 27.140625 299.542969 77.378906 299.542969 139.132812 C 299.542969 200.886719 249.296875 251.128906 187.542969 251.128906 Z M 276.515625 246.125 C 307.183594 220.597656 326.71875 182.15625 326.71875 139.132812 C 326.71875 62.269531 264.40625 -0.0429688 187.542969 -0.0429688 C 110.679688 -0.0429688 48.367188 62.269531 48.367188 139.132812 C 48.367188 182.15625 67.90625 220.597656 98.574219 246.125 L 44.285156 333.6875 L 94.808594 326.496094 L 110.824219 374.953125 L 171.371094 277.289062 C 176.6875 277.910156 182.066406 278.308594 187.542969 278.308594 C 193.023438 278.308594 198.40625 277.910156 203.71875 277.292969 L 264.265625 374.953125 L 280.28125 326.496094 L 330.800781 333.6875 L 276.515625 246.125 " fill-opacity="1" fill-rule="nonzero"/></g><path fill="#6d0083" d="M 231.332031 201.496094 L 187.363281 178.207031 L 143.230469 201.238281 L 151.804688 152.214844 L 116.277344 117.359375 L 165.539062 110.359375 L 187.707031 65.789062 L 209.585938 110.480469 L 258.8125 117.777344 L 223.070312 152.425781 Z M 187.542969 45.898438 C 136.132812 45.898438 94.316406 87.726562 94.316406 139.132812 C 94.316406 190.542969 136.132812 232.367188 187.542969 232.367188 C 238.953125 232.367188 280.785156 190.542969 280.785156 139.132812 C 280.785156 87.726562 238.953125 45.898438 187.542969 45.898438 " fill-opacity="1" fill-rule="nonzero"/></svg>