<svg xmlns="http://www.w3.org/2000/svg" xmlns:xlink="http://www.w3.org/1999/xlink" width="500" zoomAndPan="magnify" viewBox="0 0 375 374.999991" height="500" preserveAspectRatio="xMidYMid meet" version="1.0"><path fill="#6d0083" d="M 322.09375 104.789062 C 315.914062 163.753906 301.652344 220.199219 268.804688 270.601562 C 249.910156 299.59375 225.609375 323.042969 195.511719 340.402344 C 191.867188 342.507812 189.421875 342.289062 185.949219 340.28125 C 148.136719 318.472656 120.246094 287.332031 99.988281 249.074219 C 81.039062 213.28125 69.769531 174.972656 63.417969 135.09375 C 61.753906 124.640625 60.515625 114.144531 59.300781 103.632812 C 58.859375 99.832031 60.1875 98.609375 63.132812 97.144531 C 96.316406 80.660156 129.429688 64.039062 162.5625 47.460938 C 170.851562 43.316406 179.183594 39.273438 187.394531 34.992188 C 189.800781 33.734375 191.679688 33.648438 194.167969 34.890625 C 235.761719 55.792969 277.378906 76.671875 319.121094 97.300781 C 323.066406 99.246094 322.558594 101.675781 322.09375 104.789062 Z M 356.386719 89.8125 C 356.300781 83.875 353.828125 80.074219 348.554688 77.445312 C 298.421875 52.441406 248.332031 27.339844 198.226562 2.265625 C 196.726562 1.515625 195.226562 0.757812 193.730469 0 C 191.78125 0 189.824219 0 187.871094 0 C 142.527344 22.703125 97.1875 45.410156 51.847656 68.113281 C 45.226562 71.425781 38.601562 74.734375 31.984375 78.042969 C 27.832031 80.117188 25.375 83.382812 25.304688 88.105469 C 24.453125 144.589844 34.226562 199.011719 57.722656 250.566406 C 75.679688 289.980469 101.554688 323.179688 137.316406 348.203125 C 151.816406 358.351562 167.34375 366.597656 183.785156 373.148438 C 184.949219 373.613281 186.449219 373.621094 187.136719 375 C 189.335938 375 191.53125 375 193.730469 375 C 204.363281 370.414062 215.019531 365.917969 225.136719 360.238281 C 266.351562 337.09375 296.699219 303.6875 318.300781 261.972656 C 333.835938 231.945312 343.710938 200.0625 349.796875 166.898438 C 354.472656 141.410156 356.785156 115.738281 356.386719 89.8125 " fill-opacity="1" fill-rule="nonzero"/><path fill="#6d0083" d="M 261.613281 155.125 C 237.457031 179.433594 213.230469 203.671875 188.914062 227.808594 C 182.777344 233.882812 175.046875 233.789062 168.902344 227.75 C 156.804688 215.839844 144.785156 203.835938 132.886719 191.722656 C 127.035156 185.769531 127.078125 177.503906 132.621094 172.042969 C 138.152344 166.578125 146.277344 166.664062 152.308594 172.53125 C 160.097656 180.097656 167.707031 187.851562 175.402344 195.523438 C 176.460938 196.582031 177.582031 197.589844 179.089844 199.019531 C 186.285156 191.808594 193.074219 184.984375 199.882812 178.167969 C 213.933594 164.105469 227.964844 150 242.085938 136.007812 C 248.265625 129.886719 256.519531 129.769531 262.113281 135.4375 C 267.566406 140.960938 267.566406 149.128906 261.613281 155.125 Z M 292.054688 113.707031 C 259.007812 96.859375 226.058594 79.808594 193.125 62.738281 C 191.160156 61.722656 189.671875 61.800781 187.773438 62.816406 C 181.269531 66.3125 174.667969 69.625 168.113281 73.007812 C 141.882812 86.546875 115.660156 100.117188 89.398438 113.585938 C 87.0625 114.785156 86.011719 115.773438 86.363281 118.886719 C 87.320312 127.46875 88.304688 136.039062 89.621094 144.570312 C 94.652344 177.144531 103.5625 208.4375 118.574219 237.675781 C 134.609375 268.917969 156.695312 294.355469 186.621094 312.175781 C 189.378906 313.8125 191.308594 313.984375 194.195312 312.261719 C 218.019531 298.085938 237.261719 278.941406 252.21875 255.261719 C 278.226562 214.089844 289.511719 167.984375 294.40625 119.824219 C 294.769531 117.28125 295.171875 115.300781 292.054688 113.707031 " fill-opacity="1" fill-rule="nonzero"/></svg>