<svg xmlns="http://www.w3.org/2000/svg" xmlns:xlink="http://www.w3.org/1999/xlink" width="500" zoomAndPan="magnify" viewBox="0 0 375 374.999991" height="500" preserveAspectRatio="xMidYMid meet" version="1.0"><path fill="#6d0083" d="M 187.5 104.429688 C 160.21875 104.429688 135.964844 117.648438 120.808594 138.027344 L 254.191406 138.027344 C 239.035156 117.648438 214.78125 104.429688 187.5 104.429688 Z M 165.007812 133.671875 L 159.632812 130.667969 L 154.28125 133.671875 L 155.503906 127.636719 L 150.96875 123.457031 L 157.082031 122.746094 L 159.65625 117.164062 L 162.230469 122.746094 L 168.34375 123.457031 L 163.808594 127.660156 Z M 195.117188 135.175781 L 187.5 130.898438 L 179.882812 135.175781 L 181.589844 126.617188 L 175.171875 120.707031 L 183.832031 119.6875 L 187.472656 111.765625 L 191.117188 119.6875 L 199.777344 120.707031 L 193.359375 126.617188 Z M 220.71875 133.671875 L 215.34375 130.667969 L 209.992188 133.671875 L 211.191406 127.636719 L 206.65625 123.457031 L 212.769531 122.746094 L 215.34375 117.164062 L 217.917969 122.746094 L 224.03125 123.457031 L 219.496094 127.636719 Z M 220.71875 133.671875 " fill-opacity="1" fill-rule="nonzero"/><path fill="#6d0083" d="M 187.5 270.570312 C 214.78125 270.570312 239.035156 257.351562 254.191406 236.96875 L 120.808594 236.96875 C 135.964844 257.351562 160.21875 270.570312 187.5 270.570312 Z M 209.992188 241.328125 L 215.34375 244.332031 L 220.71875 241.328125 L 219.496094 247.363281 L 224.03125 251.542969 L 217.917969 252.253906 L 215.34375 257.835938 L 212.769531 252.253906 L 206.65625 251.542969 L 211.191406 247.363281 Z M 179.882812 239.824219 L 187.5 244.101562 L 195.117188 239.824219 L 193.410156 248.382812 L 199.828125 254.292969 L 191.167969 255.3125 L 187.527344 263.234375 L 183.882812 255.3125 L 175.222656 254.292969 L 181.640625 248.382812 Z M 154.28125 241.328125 L 159.632812 244.332031 L 165.007812 241.328125 L 163.808594 247.363281 L 168.34375 251.542969 L 162.230469 252.253906 L 159.65625 257.835938 L 157.082031 252.253906 L 150.96875 251.542969 L 155.503906 247.363281 Z M 154.28125 241.328125 " fill-opacity="1" fill-rule="nonzero"/><path fill="#6d0083" d="M 54.167969 138.027344 C 54.90625 136.066406 55.671875 134.105469 56.488281 132.171875 C 63.644531 115.230469 73.910156 100.046875 86.953125 86.980469 C 99.996094 73.910156 115.203125 63.671875 132.144531 56.511719 C 149.671875 49.097656 168.292969 45.328125 187.472656 45.328125 C 206.65625 45.328125 225.277344 49.097656 242.804688 56.511719 C 259.746094 63.671875 274.925781 73.9375 287.996094 86.980469 C 301.0625 100.023438 311.304688 115.230469 318.460938 132.171875 C 319.277344 134.105469 320.066406 136.066406 320.78125 138.027344 L 352.445312 138.027344 C 353.363281 127.636719 356.34375 116.582031 352.265625 108.148438 C 346.507812 96.199219 328.296875 92.023438 320.09375 81.757812 C 311.863281 71.441406 311.8125 52.765625 301.496094 44.539062 C 291.230469 36.335938 273.015625 40.414062 261.070312 34.65625 C 249.324219 28.976562 241.175781 12.160156 228.15625 9.179688 C 215.546875 6.328125 200.949219 17.894531 187.449219 17.894531 C 173.972656 17.894531 159.375 6.328125 146.742188 9.179688 C 133.722656 12.136719 125.574219 28.976562 113.828125 34.65625 C 101.882812 40.414062 83.667969 36.335938 73.402344 44.539062 C 63.085938 52.765625 63.035156 71.441406 54.804688 81.757812 C 46.601562 92.023438 28.390625 96.199219 22.632812 108.148438 C 18.554688 116.582031 21.5625 127.660156 22.453125 138.027344 Z M 54.167969 138.027344 " fill-opacity="1" fill-rule="nonzero"/><path fill="#6d0083" d="M 320.804688 236.96875 C 320.066406 238.933594 319.304688 240.894531 318.488281 242.828125 C 311.328125 259.769531 301.089844 274.953125 288.019531 288.019531 C 274.953125 301.089844 259.769531 311.328125 242.828125 318.488281 C 225.304688 325.902344 206.683594 329.671875 187.5 329.671875 C 168.316406 329.671875 149.695312 325.902344 132.171875 318.488281 C 115.230469 311.328125 100.046875 301.089844 86.980469 288.019531 C 73.910156 274.953125 63.671875 259.769531 56.511719 242.828125 C 55.695312 240.894531 54.90625 238.933594 54.195312 236.96875 L 22.53125 236.96875 C 21.613281 247.363281 18.632812 258.417969 22.707031 266.851562 C 28.464844 278.800781 46.679688 282.976562 54.882812 293.242188 C 63.109375 303.558594 63.160156 322.234375 73.476562 330.460938 C 83.742188 338.664062 101.957031 334.585938 113.90625 340.34375 C 125.648438 346.023438 133.800781 362.839844 146.816406 365.820312 C 159.425781 368.671875 174.023438 357.105469 187.527344 357.105469 C 201 357.105469 215.597656 368.671875 228.234375 365.820312 C 241.25 362.863281 249.402344 346.023438 261.144531 340.34375 C 273.09375 334.585938 291.308594 338.664062 301.574219 330.460938 C 311.890625 322.234375 311.941406 303.558594 320.167969 293.242188 C 328.371094 282.976562 346.585938 278.800781 352.34375 266.851562 C 356.417969 258.417969 353.414062 247.339844 352.519531 236.96875 Z M 320.804688 236.96875 " fill-opacity="1" fill-rule="nonzero"/><path fill="#6d0083" d="M 215.089844 164.851562 L 209.457031 164.851562 L 209.457031 210.171875 L 215.089844 210.171875 C 216.667969 210.171875 217.890625 209.714844 218.808594 208.820312 C 219.726562 207.90625 220.15625 206.324219 220.15625 204.007812 L 220.15625 171.019531 C 220.15625 168.726562 219.699219 167.121094 218.808594 166.203125 C 217.917969 165.285156 216.667969 164.851562 215.089844 164.851562 Z M 215.089844 164.851562 " fill-opacity="1" fill-rule="nonzero"/><path fill="#6d0083" d="M 45.457031 190.683594 L 41.023438 190.683594 L 41.023438 210.171875 L 46.730469 210.171875 C 48.410156 210.171875 49.710938 209.714844 50.578125 208.820312 C 51.441406 207.90625 51.902344 206.273438 51.902344 203.929688 L 51.902344 198.402344 C 51.902344 195.449219 51.390625 193.410156 50.398438 192.339844 C 49.40625 191.269531 47.773438 190.683594 45.457031 190.683594 Z M 45.457031 190.683594 " fill-opacity="1" fill-rule="nonzero"/><path fill="#6d0083" d="M 286.59375 199.089844 L 296.199219 199.089844 L 291.382812 167.019531 Z M 286.59375 199.089844 " fill-opacity="1" fill-rule="nonzero"/><path fill="#6d0083" d="M 49.328125 180.164062 C 50.371094 179.195312 50.90625 177.4375 50.90625 174.914062 L 50.90625 171.375 C 50.90625 169.082031 50.5 167.425781 49.683594 166.382812 C 48.871094 165.363281 47.597656 164.855469 45.839844 164.855469 L 41.023438 164.855469 L 41.023438 181.617188 L 44.921875 181.617188 C 46.804688 181.617188 48.257812 181.132812 49.328125 180.164062 Z M 49.328125 180.164062 " fill-opacity="1" fill-rule="nonzero"/><path fill="#6d0083" d="M 363.855469 143.199219 L 11.144531 143.199219 C 5.054688 143.199219 0.0859375 148.140625 0.0859375 154.257812 L 0.0859375 220.792969 C 0.0859375 226.882812 5.027344 231.851562 11.144531 231.851562 L 363.855469 231.851562 C 369.945312 231.851562 374.914062 226.910156 374.914062 220.792969 L 374.914062 154.230469 C 374.886719 148.140625 369.945312 143.199219 363.855469 143.199219 Z M 61.863281 204.183594 C 61.863281 209.078125 60.589844 212.820312 58.066406 215.367188 C 55.519531 217.941406 51.75 219.214844 46.730469 219.214844 L 31.0625 219.214844 L 31.0625 155.785156 L 46.09375 155.785156 C 51.289062 155.785156 55.058594 156.980469 57.378906 159.402344 C 59.695312 161.820312 60.867188 165.464844 60.867188 170.355469 L 60.867188 172.625 C 60.867188 175.882812 60.359375 178.585938 59.339844 180.699219 C 58.320312 182.8125 56.691406 184.390625 54.449219 185.410156 C 57.175781 186.429688 59.085938 188.113281 60.207031 190.429688 C 61.328125 192.746094 61.886719 195.601562 61.886719 198.988281 L 61.886719 204.183594 Z M 98.644531 164.851562 L 81.425781 164.851562 L 81.425781 182.53125 L 95.105469 182.53125 L 95.105469 191.601562 L 81.425781 191.601562 L 81.425781 210.171875 L 98.644531 210.171875 L 98.644531 219.242188 L 71.464844 219.242188 L 71.464844 155.808594 L 98.644531 155.808594 Z M 132.859375 215.828125 C 130.363281 218.578125 126.640625 219.953125 121.75 219.953125 C 116.859375 219.953125 113.167969 218.578125 110.644531 215.828125 C 108.148438 213.074219 106.875 209.128906 106.875 204.007812 L 106.875 200.109375 L 116.300781 200.109375 L 116.300781 204.644531 C 116.300781 206.9375 116.757812 208.542969 117.699219 209.457031 C 118.644531 210.375 119.890625 210.808594 121.472656 210.808594 C 123.050781 210.808594 124.296875 210.351562 125.242188 209.457031 C 126.183594 208.542969 126.640625 206.960938 126.640625 204.644531 C 126.640625 202.480469 126.160156 200.542969 125.191406 198.886719 C 124.222656 197.230469 123.023438 195.652344 121.574219 194.175781 C 120.121094 192.695312 118.566406 191.21875 116.910156 189.742188 C 115.253906 188.265625 113.703125 186.660156 112.25 184.902344 C 110.796875 183.144531 109.601562 181.15625 108.632812 178.914062 C 107.664062 176.671875 107.179688 174.050781 107.179688 171.042969 C 107.179688 165.898438 108.402344 161.976562 110.847656 159.222656 C 113.292969 156.472656 116.960938 155.097656 121.851562 155.097656 C 126.746094 155.097656 130.414062 156.472656 132.859375 159.222656 C 135.304688 161.976562 136.527344 165.921875 136.527344 171.042969 L 136.527344 173.03125 L 127.101562 173.03125 L 127.101562 170.40625 C 127.101562 168.113281 126.667969 166.484375 125.777344 165.566406 C 124.910156 164.625 123.6875 164.164062 122.109375 164.164062 C 120.527344 164.164062 119.304688 164.625 118.441406 165.566406 C 117.574219 166.507812 117.113281 168.113281 117.113281 170.40625 C 117.113281 172.570312 117.597656 174.507812 118.566406 176.164062 C 119.535156 177.820312 120.730469 179.398438 122.183594 180.875 C 123.636719 182.355469 125.191406 183.832031 126.847656 185.308594 C 128.503906 186.785156 130.054688 188.417969 131.507812 190.148438 C 132.960938 191.90625 134.15625 193.894531 135.125 196.136719 C 136.09375 198.378906 136.578125 201 136.578125 204.007812 C 136.628906 209.128906 135.378906 213.074219 132.859375 215.828125 Z M 173.871094 164.851562 L 163.453125 164.851562 L 163.453125 219.214844 L 153.492188 219.214844 L 153.492188 164.851562 L 143.074219 164.851562 L 143.074219 155.785156 L 173.871094 155.785156 Z M 230.144531 203.546875 C 230.144531 208.695312 228.921875 212.59375 226.476562 215.242188 C 224.03125 217.890625 220.3125 219.242188 215.292969 219.242188 L 199.523438 219.242188 L 199.523438 155.808594 L 215.292969 155.808594 C 220.3125 155.808594 224.03125 157.136719 226.476562 159.808594 C 228.921875 162.457031 230.144531 166.355469 230.144531 171.503906 Z M 267.285156 164.851562 L 250.0625 164.851562 L 250.0625 182.53125 L 263.742188 182.53125 L 263.742188 191.601562 L 250.0625 191.601562 L 250.0625 210.171875 L 267.285156 210.171875 L 267.285156 219.242188 L 240.105469 219.242188 L 240.105469 155.808594 L 267.285156 155.808594 Z M 299.28125 219.214844 L 297.546875 207.699219 L 285.320312 207.699219 L 283.589844 219.214844 L 274.441406 219.214844 L 284.582031 155.785156 L 299.179688 155.785156 L 309.316406 219.214844 Z M 343.9375 219.214844 L 317.570312 219.214844 L 317.570312 155.785156 L 327.53125 155.785156 L 327.53125 210.144531 L 343.9375 210.144531 Z M 343.9375 219.214844 " fill-opacity="1" fill-rule="nonzero"/><path fill="#6d0083" d="M 313.980469 138.027344 C 294.160156 87.539062 244.945312 51.699219 187.5 51.699219 C 130.054688 51.699219 80.839844 87.539062 61.019531 138.027344 L 112.960938 138.027344 C 116.25 133.113281 119.992188 128.5 124.246094 124.273438 C 132.449219 116.070312 142.027344 109.601562 152.675781 105.117188 C 163.707031 100.453125 175.425781 98.085938 187.5 98.085938 C 199.574219 98.085938 211.292969 100.453125 222.324219 105.117188 C 232.972656 109.625 242.550781 116.070312 250.753906 124.273438 C 255.007812 128.5 258.777344 133.113281 262.039062 138.027344 Z M 117.804688 116.960938 L 113.015625 121.726562 L 93.753906 102.390625 L 98.339844 97.832031 C 99.921875 96.25 101.449219 95.488281 102.875 95.511719 C 104.328125 95.539062 105.777344 96.300781 107.257812 97.804688 L 107.945312 98.492188 C 108.9375 99.488281 109.601562 100.453125 109.929688 101.421875 C 110.261719 102.390625 110.238281 103.359375 109.878906 104.351562 C 111.027344 103.84375 112.121094 103.765625 113.167969 104.148438 C 114.210938 104.53125 115.253906 105.21875 116.273438 106.238281 L 117.855469 107.816406 C 119.332031 109.320312 120.09375 110.824219 120.09375 112.375 C 120.09375 113.90625 119.332031 115.433594 117.804688 116.960938 Z M 128.984375 107.230469 L 114.160156 84.328125 L 123.96875 77.988281 L 126.082031 81.246094 L 119.867188 85.273438 L 123.992188 91.640625 L 128.933594 88.429688 L 131.050781 91.691406 L 126.105469 94.925781 L 130.4375 101.625 L 136.652344 97.601562 L 138.769531 100.863281 Z M 155.605469 91.894531 C 155.019531 93.398438 153.746094 94.519531 151.785156 95.285156 C 149.824219 96.046875 148.117188 96.074219 146.691406 95.359375 C 145.265625 94.648438 144.144531 93.269531 143.351562 91.207031 L 142.742188 89.652344 L 146.511719 88.203125 L 147.226562 90.011719 C 147.582031 90.925781 148.015625 91.488281 148.523438 91.71875 C 149.035156 91.945312 149.621094 91.921875 150.230469 91.667969 C 150.867188 91.410156 151.300781 91.054688 151.53125 90.546875 C 151.761719 90.035156 151.707031 89.324219 151.351562 88.40625 C 151.019531 87.539062 150.511719 86.851562 149.875 86.316406 C 149.238281 85.808594 148.5 85.347656 147.683594 84.992188 C 146.867188 84.636719 146.027344 84.277344 145.109375 83.949219 C 144.21875 83.617188 143.328125 83.207031 142.488281 82.726562 C 141.621094 82.242188 140.832031 81.628906 140.09375 80.890625 C 139.355469 80.152344 138.769531 79.160156 138.285156 77.960938 C 137.496094 75.898438 137.367188 74.140625 137.925781 72.636719 C 138.488281 71.160156 139.734375 70.039062 141.699219 69.273438 C 143.660156 68.511719 145.339844 68.484375 146.742188 69.222656 C 148.140625 69.9375 149.261719 71.339844 150.054688 73.402344 L 150.359375 74.191406 L 146.589844 75.644531 L 146.179688 74.597656 C 145.824219 73.683594 145.390625 73.097656 144.90625 72.867188 C 144.398438 72.636719 143.835938 72.636719 143.226562 72.867188 C 142.589844 73.121094 142.179688 73.476562 141.976562 74.011719 C 141.773438 74.523438 141.851562 75.234375 142.207031 76.152344 C 142.539062 77.019531 143.046875 77.707031 143.683594 78.242188 C 144.320312 78.75 145.058594 79.210938 145.875 79.566406 C 146.691406 79.921875 147.53125 80.28125 148.449219 80.609375 C 149.339844 80.941406 150.230469 81.347656 151.070312 81.832031 C 151.9375 82.316406 152.726562 82.929688 153.464844 83.667969 C 154.207031 84.40625 154.792969 85.398438 155.273438 86.597656 C 156.066406 88.636719 156.191406 90.417969 155.605469 91.894531 Z M 173.082031 89.347656 L 168.851562 90.0625 L 164.980469 67.007812 L 160.546875 67.746094 L 159.910156 63.898438 L 172.980469 61.707031 L 173.617188 65.554688 L 169.183594 66.292969 Z M 214.453125 70.648438 L 212.132812 84.253906 C 211.75 86.417969 210.960938 88 209.738281 88.941406 C 208.515625 89.882812 206.835938 90.1875 204.695312 89.832031 L 198.019531 88.6875 L 202.605469 61.785156 L 209.28125 62.929688 C 211.394531 63.289062 212.898438 64.128906 213.738281 65.429688 C 214.578125 66.726562 214.832031 68.460938 214.453125 70.648438 Z M 232.945312 86.035156 L 227.46875 83.847656 L 224.515625 91.257812 L 231.390625 94.011719 L 229.941406 97.628906 L 219.089844 93.296875 L 229.226562 67.976562 L 240.078125 72.304688 L 238.625 75.921875 L 231.75 73.171875 L 228.921875 80.230469 L 234.398438 82.417969 Z M 248.894531 109.269531 L 245.300781 106.847656 L 247.441406 102.316406 L 243.058594 99.386719 L 239.695312 103.078125 L 236.4375 100.886719 L 255.261719 80.660156 L 260.484375 84.152344 Z M 274.214844 95.335938 L 277.21875 98.390625 L 260.535156 114.769531 L 265.476562 119.816406 L 262.699219 122.539062 L 254.75 114.441406 Z M 274.214844 95.335938 " fill-opacity="1" fill-rule="nonzero"/><path fill="#6d0083" d="M 113.039062 109.039062 C 112.148438 108.148438 111.382812 107.664062 110.746094 107.636719 C 110.109375 107.613281 109.449219 107.945312 108.734375 108.632812 L 107.382812 109.980469 L 113.292969 115.917969 L 115.027344 114.183594 C 115.535156 113.675781 115.789062 113.140625 115.789062 112.605469 C 115.789062 112.070312 115.410156 111.433594 114.695312 110.722656 Z M 113.039062 109.039062 " fill-opacity="1" fill-rule="nonzero"/><path fill="#6d0083" d="M 139.914062 279.996094 L 131.789062 291.332031 L 135.457031 293.21875 Z M 139.914062 279.996094 " fill-opacity="1" fill-rule="nonzero"/><path fill="#6d0083" d="M 97.296875 257.527344 L 90.773438 262.800781 L 92.328125 264.710938 C 92.789062 265.273438 93.269531 265.578125 93.832031 265.628906 C 94.367188 265.679688 95.027344 265.375 95.820312 264.738281 L 97.679688 263.234375 C 98.671875 262.445312 99.207031 261.730469 99.308594 261.09375 C 99.410156 260.457031 99.128906 259.769531 98.519531 259.003906 Z M 97.296875 257.527344 " fill-opacity="1" fill-rule="nonzero"/><path fill="#6d0083" d="M 249.019531 98.925781 L 255.007812 86.316406 L 245.605469 96.632812 Z M 249.019531 98.925781 " fill-opacity="1" fill-rule="nonzero"/><path fill="#6d0083" d="M 104.554688 101.117188 C 103.867188 100.429688 103.230469 100.046875 102.671875 99.972656 C 102.109375 99.894531 101.574219 100.148438 101.039062 100.660156 L 99.589844 102.109375 L 104.683594 107.230469 L 105.882812 106.058594 C 106.441406 105.5 106.746094 104.886719 106.773438 104.277344 C 106.796875 103.664062 106.441406 102.976562 105.652344 102.1875 Z M 104.554688 101.117188 " fill-opacity="1" fill-rule="nonzero"/><path fill="#6d0083" d="M 208.542969 66.753906 L 206.148438 66.34375 L 202.859375 85.550781 L 205.253906 85.960938 C 205.917969 86.0625 206.476562 85.960938 206.9375 85.65625 C 207.394531 85.347656 207.699219 84.6875 207.855469 83.71875 L 210.25 69.734375 C 210.425781 68.765625 210.351562 68.050781 210.019531 67.59375 C 209.714844 67.136719 209.203125 66.855469 208.542969 66.753906 Z M 208.542969 66.753906 " fill-opacity="1" fill-rule="nonzero"/><path fill="#6d0083" d="M 105.242188 256.558594 L 106.414062 255.617188 C 107.179688 255.007812 107.636719 254.421875 107.765625 253.859375 C 107.894531 253.300781 107.714844 252.738281 107.230469 252.152344 L 105.933594 250.546875 L 100.328125 255.082031 L 101.371094 256.382812 C 101.882812 257.019531 102.441406 257.375 103.054688 257.453125 C 103.664062 257.554688 104.378906 257.25 105.242188 256.558594 Z M 105.242188 256.558594 " fill-opacity="1" fill-rule="nonzero"/><path fill="#6d0083" d="M 61.019531 236.96875 C 80.839844 287.460938 130.054688 323.300781 187.5 323.300781 C 244.917969 323.300781 294.160156 287.460938 313.953125 236.96875 L 262.011719 236.96875 C 258.726562 241.886719 254.980469 246.496094 250.726562 250.726562 C 242.523438 258.929688 232.945312 265.398438 222.296875 269.882812 C 211.265625 274.546875 199.550781 276.914062 187.472656 276.914062 C 175.398438 276.914062 163.683594 274.546875 152.652344 269.882812 C 142.003906 265.375 132.425781 258.929688 124.222656 250.726562 C 119.992188 246.496094 116.199219 241.886719 112.9375 236.96875 Z M 102.542969 263.871094 C 102.058594 264.863281 101.269531 265.832031 100.125 266.75 L 98.390625 268.152344 C 96.761719 269.476562 95.15625 270.0625 93.628906 269.910156 C 92.074219 269.757812 90.621094 268.839844 89.273438 267.15625 L 85.042969 261.910156 L 106.289062 244.792969 L 110.339844 249.835938 C 111.738281 251.566406 112.351562 253.171875 112.171875 254.597656 C 111.996094 256.023438 111.078125 257.402344 109.449219 258.726562 L 108.683594 259.335938 C 107.585938 260.230469 106.542969 260.761719 105.574219 260.992188 C 104.582031 261.222656 103.613281 261.09375 102.671875 260.636719 C 103.054688 261.78125 103.027344 262.878906 102.542969 263.871094 Z M 264.863281 249.554688 L 283.207031 264.074219 L 287.585938 258.546875 L 290.644531 260.96875 L 283.613281 269.859375 L 262.214844 252.941406 Z M 253.578125 261.503906 L 274.441406 279.613281 L 271.132812 282.390625 L 267.386719 279.078125 L 263.363281 282.46875 L 265.984375 286.746094 L 262.980469 289.269531 L 248.789062 265.550781 Z M 239.3125 272.277344 L 241.148438 275.71875 L 234.601562 279.179688 L 238.167969 285.882812 L 243.363281 283.128906 L 245.199219 286.570312 L 240.003906 289.320312 L 243.746094 296.375 L 250.292969 292.910156 L 252.128906 296.351562 L 241.8125 301.828125 L 229.023438 277.730469 Z M 215.039062 282.796875 C 217.101562 282.210938 218.808594 282.316406 220.132812 283.128906 C 221.457031 283.945312 222.425781 285.421875 223.035156 287.535156 L 226.804688 300.808594 C 227.417969 302.921875 227.367188 304.679688 226.652344 306.082031 C 225.964844 307.457031 224.566406 308.449219 222.5 309.035156 L 215.980469 310.898438 L 208.515625 284.660156 Z M 174.914062 286.109375 L 188.136719 286.898438 L 187.90625 290.796875 L 183.425781 290.542969 L 182.046875 313.878906 L 177.769531 313.621094 L 179.144531 290.289062 L 174.660156 290.035156 Z M 150.230469 301.675781 L 150.664062 300.042969 L 154.585938 301.089844 L 154.078125 302.972656 C 153.824219 303.917969 153.847656 304.65625 154.128906 305.113281 C 154.410156 305.597656 154.894531 305.929688 155.53125 306.109375 C 156.191406 306.285156 156.753906 306.234375 157.238281 305.953125 C 157.722656 305.675781 158.101562 305.0625 158.359375 304.121094 C 158.613281 303.230469 158.613281 302.363281 158.382812 301.574219 C 158.152344 300.785156 157.847656 299.992188 157.390625 299.203125 C 156.957031 298.441406 156.472656 297.648438 155.9375 296.835938 C 155.402344 296.046875 154.945312 295.179688 154.535156 294.3125 C 154.128906 293.421875 153.847656 292.453125 153.695312 291.433594 C 153.542969 290.390625 153.644531 289.242188 153.976562 287.996094 C 154.535156 285.855469 155.503906 284.351562 156.804688 283.488281 C 158.128906 282.621094 159.808594 282.441406 161.847656 283.003906 C 163.886719 283.539062 165.261719 284.53125 165.972656 285.933594 C 166.6875 287.359375 166.765625 289.117188 166.179688 291.257812 L 165.949219 292.097656 L 162.027344 291.050781 L 162.304688 289.957031 C 162.5625 289.015625 162.5625 288.277344 162.304688 287.792969 C 162.050781 287.308594 161.59375 286.976562 160.929688 286.796875 C 160.269531 286.621094 159.707031 286.671875 159.25 286.976562 C 158.789062 287.257812 158.410156 287.894531 158.152344 288.835938 C 157.925781 289.726562 157.898438 290.59375 158.128906 291.382812 C 158.332031 292.171875 158.664062 292.960938 159.121094 293.753906 C 159.554688 294.515625 160.039062 295.304688 160.574219 296.121094 C 161.109375 296.910156 161.566406 297.777344 161.976562 298.644531 C 162.382812 299.535156 162.664062 300.503906 162.816406 301.523438 C 162.96875 302.566406 162.867188 303.714844 162.535156 304.960938 C 161.976562 307.101562 161.007812 308.605469 159.65625 309.445312 C 158.308594 310.3125 156.625 310.464844 154.585938 309.929688 C 152.550781 309.394531 151.175781 308.398438 150.433594 306.972656 C 149.746094 305.597656 149.671875 303.816406 150.230469 301.675781 Z M 145.109375 277.246094 L 136.550781 303.507812 L 132.707031 301.546875 L 134.308594 296.808594 L 129.621094 294.414062 L 126.691406 298.492188 L 123.179688 296.683594 L 139.507812 274.390625 Z M 129.648438 268.277344 L 127.175781 271.308594 L 121.445312 266.621094 L 116.65625 272.507812 L 121.214844 276.226562 L 118.746094 279.257812 L 114.183594 275.539062 L 109.140625 281.730469 L 114.875 286.414062 L 112.402344 289.449219 L 103.332031 282.058594 L 120.554688 260.917969 Z M 129.648438 268.277344 " fill-opacity="1" fill-rule="nonzero"/><path fill="#6d0083" d="M 221.355469 305.316406 C 221.992188 305.140625 222.476562 304.808594 222.730469 304.324219 C 223.011719 303.839844 223.011719 303.128906 222.730469 302.183594 L 218.859375 288.53125 C 218.578125 287.585938 218.222656 286.976562 217.738281 286.695312 C 217.253906 286.414062 216.691406 286.390625 216.03125 286.570312 L 213.714844 287.230469 L 219.035156 305.980469 Z M 221.355469 305.316406 " fill-opacity="1" fill-rule="nonzero"/><path fill="#6d0083" d="M 254.113281 267.359375 L 261.398438 279.257812 L 264.558594 276.609375 Z M 254.113281 267.359375 " fill-opacity="1" fill-rule="nonzero"/></svg>